<svg id="visual" viewBox="0 0 1400 100" width="1400" height="100" xmlns="http://www.w3.org/2000/svg" xmlns:xlink="http://www.w3.org/1999/xlink" version="1.1"><path d="M0 71L33.3 71.3C66.7 71.7 133.3 72.3 200 72C266.7 71.7 333.3 70.3 400 70.3C466.7 70.3 533.3 71.7 600 70.7C666.7 69.7 733.3 66.3 800 65.3C866.7 64.3 933.3 65.7 1000 68.5C1066.7 71.3 1133.3 75.7 1200 76.5C1266.7 77.3 1333.3 74.7 1366.7 73.3L1400 72L1400 101L1366.7 101C1333.3 101 1266.7 101 1200 101C1133.3 101 1066.7 101 1000 101C933.3 101 866.7 101 800 101C733.3 101 666.7 101 600 101C533.3 101 466.7 101 400 101C333.3 101 266.7 101 200 101C133.3 101 66.7 101 33.3 101L0 101Z" fill="#FFFFFF" stroke-linecap="round" stroke-linejoin="miter"></path></svg>