<svg id="visual" viewBox="0 0 1400 400" width="1400" height="400" xmlns="http://www.w3.org/2000/svg" xmlns:xlink="http://www.w3.org/1999/xlink" version="1.1"><path d="M0 252L33.3 253.5C66.7 255 133.3 258 200 269.5C266.7 281 333.3 301 400 313.5C466.7 326 533.3 331 600 323.2C666.7 315.3 733.3 294.7 800 295.5C866.7 296.3 933.3 318.7 1000 317.3C1066.7 316 1133.3 291 1200 286.8C1266.7 282.7 1333.3 299.3 1366.7 307.7L1400 316L1400 401L1366.7 401C1333.3 401 1266.7 401 1200 401C1133.3 401 1066.7 401 1000 401C933.3 401 866.7 401 800 401C733.3 401 666.7 401 600 401C533.3 401 466.7 401 400 401C333.3 401 266.7 401 200 401C133.3 401 66.7 401 33.3 401L0 401Z" fill="#FFFFFF" stroke-linecap="round" stroke-linejoin="miter"></path></svg>