<svg id="visual" viewBox="0 0 900 600" width="900" height="600" xmlns="http://www.w3.org/2000/svg" xmlns:xlink="http://www.w3.org/1999/xlink" version="1.1"><path d="M0 529L25 525.3C50 521.7 100 514.3 150 504.2C200 494 250 481 300 480.8C350 480.7 400 493.3 450 489C500 484.7 550 463.3 600 464.3C650 465.3 700 488.7 750 487C800 485.3 850 458.7 875 445.3L900 432L900 601L875 601C850 601 800 601 750 601C700 601 650 601 600 601C550 601 500 601 450 601C400 601 350 601 300 601C250 601 200 601 150 601C100 601 50 601 25 601L0 601Z" fill="#FFFFFF" stroke-linecap="round" stroke-linejoin="miter"></path></svg>